<svg width="67" height="68" viewBox="0 0 67 68" fill="none" xmlns="http://www.w3.org/2000/svg">
<g clip-path="url(#clip0_2490_31791)">
<path d="M18.3805 25.2336V23.0387H12.9739V29.155L11.5761 27.7364L10.0464 29.2889L14.0552 33.3575L18.064 29.2889L16.5343 27.7364L15.1365 29.155V25.2336H18.3805Z" fill="#18939B"/>
<path d="M55.4357 27.7364L54.0379 29.155V23.0387H48.6313V25.2336H51.8753V29.155L50.4775 27.7364L48.9478 29.2889L52.9566 33.3575L56.9654 29.2889L55.4357 27.7364Z" fill="#18939B"/>
<path d="M33.5058 0.00549316C29.3255 0.00549316 25.9365 3.32464 25.9365 7.40665C25.9365 11.6359 29.4706 15.3565 33.5058 15.3565C37.5409 15.3565 41.075 11.6359 41.075 7.40665C41.075 3.32464 37.686 0.00549316 33.5058 0.00549316ZM33.5058 13.175C30.6838 13.175 28.0992 10.4313 28.0992 7.40665C28.0992 4.52916 30.5255 2.20041 33.5058 2.20041C36.486 2.20041 38.9124 4.52916 38.9124 7.40665C38.9124 10.418 36.3277 13.175 33.5058 13.175Z" fill="#18939B"/>
<path d="M40.5607 15.4503L39.9014 15.1023L39.3475 15.5975C37.6596 17.0697 35.5893 17.8861 33.4926 17.8861C31.3959 17.8861 29.3255 17.0697 27.6376 15.5975L27.0838 15.1023L26.4244 15.4503C22.4816 17.5783 20.0684 22.0752 20.2662 26.92C20.3057 27.268 20.8068 31.8051 20.8068 31.8051H46.2047C46.2047 31.8051 46.7058 27.268 46.7189 26.92C46.9299 22.0752 44.5167 17.5649 40.5607 15.4503ZM44.5695 26.8264C44.5563 27.1208 44.2794 29.6102 44.2794 29.6102H22.7321C22.7321 29.6102 22.4552 27.1208 22.442 26.8264C22.2838 23.0789 23.9981 19.5992 26.8464 17.7389C28.8112 19.2512 31.1453 20.0676 33.5057 20.0676C35.8662 20.0676 38.2003 19.2512 40.1651 17.7389C43.0134 19.5858 44.7277 23.0789 44.5695 26.8264Z" fill="#18939B"/>
<path d="M13.2377 36.1948C9.07066 36.1948 5.66846 39.514 5.66846 43.596C5.66846 47.8252 9.20253 51.5459 13.2377 51.5459C17.2729 51.5459 20.8069 47.8252 20.8069 43.596C20.8069 39.514 17.4047 36.1948 13.2377 36.1948ZM13.2377 49.3643C10.4025 49.3643 7.8311 46.6207 7.8311 43.596C7.8311 40.7185 10.2575 38.3897 13.2377 38.3897C16.2179 38.3897 18.6443 40.7185 18.6443 43.596C18.6443 46.6073 16.0597 49.3643 13.2377 49.3643Z" fill="#18939B"/>
<path d="M20.3058 51.6396L19.6465 51.2916L19.0926 51.7868C17.4047 53.259 15.3344 54.0754 13.2377 54.0754C11.141 54.0754 9.07064 53.259 7.38273 51.7868L6.82889 51.2916L6.16954 51.6396C2.22668 53.7676 -0.186504 58.2645 0.0112982 63.1094C0.0376719 63.4574 0.538771 67.9944 0.538771 67.9944H25.9366C25.9366 67.9944 26.4377 63.4574 26.4509 63.1094C26.6619 58.2645 24.2487 53.7542 20.3058 51.6396ZM24.3014 63.0157C24.275 63.3101 24.0113 65.7995 24.0113 65.7995H2.46405C2.46405 65.7995 2.18712 63.3101 2.17394 63.0157C2.0157 59.2683 3.7168 55.7885 6.57834 53.9282C8.54317 55.4406 10.8772 56.257 13.2377 56.257C15.5981 56.257 17.9322 55.4406 19.897 53.9282C22.7454 55.7751 24.4597 59.2683 24.3014 63.0157Z" fill="#18939B"/>
<path d="M53.7738 36.1948C49.5936 36.1948 46.2046 39.514 46.2046 43.596C46.2046 47.8252 49.7387 51.5459 53.7738 51.5459C57.809 51.5459 61.3431 47.8252 61.3431 43.596C61.3431 39.514 57.9409 36.1948 53.7738 36.1948ZM53.7738 49.3643C50.9387 49.3643 48.3672 46.6207 48.3672 43.596C48.3672 40.7185 50.7936 38.3897 53.7738 38.3897C56.7541 38.3897 59.1804 40.7185 59.1804 43.596C59.1804 46.6073 56.5958 49.3643 53.7738 49.3643Z" fill="#18939B"/>
<path d="M60.8288 51.6396L60.1694 51.2916L59.6156 51.7868C57.9277 53.259 55.8573 54.0754 53.7606 54.0754C51.6639 54.0754 49.5936 53.259 47.9057 51.7868L47.3518 51.2916L46.6925 51.6396C42.7496 53.7676 40.3364 58.2645 40.5342 63.1094C40.5474 63.4574 41.0485 67.9944 41.0485 67.9944H66.4727C66.4727 67.9944 66.9738 63.4574 66.987 63.1094C67.198 58.2645 64.7848 53.7542 60.8288 51.6396ZM64.8376 63.0157C64.8112 63.3101 64.5474 65.7995 64.5474 65.7995H43.0002C43.0002 65.7995 42.7233 63.3101 42.7101 63.0157C42.5518 59.2683 44.2529 55.7885 47.1145 53.9282C49.0793 55.4406 51.4134 56.257 53.7738 56.257C56.1343 56.257 58.4683 55.4406 60.4332 53.9282C63.2815 55.7751 64.9958 59.2683 64.8376 63.0157Z" fill="#18939B"/>
</g>
<defs>
<clipPath id="clip0_2490_31791">
<rect width="67" height="68" fill="white"/>
</clipPath>
</defs>
</svg>
