<svg width="66" height="66" viewBox="0 0 66 66" fill="none" xmlns="http://www.w3.org/2000/svg">
<g clip-path="url(#clip0_2490_31822)">
<path d="M56.3345 9.66552C50.1017 3.43264 41.8146 0 33 0C24.1854 0 15.8983 3.43264 9.66552 9.66552C3.43252 15.8983 0 24.1854 0 33C0 41.8146 3.43252 50.1017 9.66552 56.3345C15.8983 62.5674 24.1854 66 33 66C41.8146 66 50.1017 62.5674 56.3345 56.3345C62.5675 50.1017 66 41.8146 66 33C66 24.1854 62.5675 15.8983 56.3345 9.66552ZM33 62.0715C16.97 62.0715 3.92855 49.03 3.92855 33C3.92855 16.97 16.97 3.92855 33 3.92855C49.03 3.92855 62.0715 16.97 62.0715 33C62.0715 49.03 49.03 62.0715 33 62.0715Z" fill="#18939B"/>
<path d="M25.8617 24.2855C22.6451 21.0686 17.4111 21.0689 14.1945 24.2855C13.4274 25.0525 13.4274 26.2963 14.1945 27.0634C14.9617 27.8304 16.2055 27.8304 16.9725 27.0634C18.6576 25.3785 21.3992 25.3786 23.084 27.0634C23.4676 27.447 23.9702 27.6388 24.4728 27.6388C24.9754 27.6388 25.4783 27.447 25.8617 27.0634C26.6288 26.2963 26.6288 25.0526 25.8617 24.2855Z" fill="#18939B"/>
<path d="M51.8055 24.2855C48.5889 21.0689 43.3549 21.0686 40.1383 24.2855C39.3712 25.0525 39.3712 26.2963 40.1383 27.0634C40.9056 27.8304 42.1494 27.8304 42.9164 27.0634C44.6012 25.3785 47.3428 25.3783 49.0278 27.0634C49.4115 27.447 49.9141 27.6388 50.4167 27.6388C50.9193 27.6388 51.4221 27.447 51.8055 27.0634C52.5726 26.2963 52.5726 25.0526 51.8055 24.2855Z" fill="#18939B"/>
<path d="M50.4167 34.4406H15.5834C14.4985 34.4406 13.6191 35.3201 13.6191 36.4048C13.6191 47.0914 22.3135 55.7858 33.0001 55.7858C43.6867 55.7858 52.381 47.0914 52.381 36.4048C52.381 35.32 51.5016 34.4406 50.4167 34.4406ZM33.0001 51.8572C25.1448 51.8572 18.6397 45.9658 17.672 38.3691H48.3283C47.3605 45.9658 40.8554 51.8572 33.0001 51.8572Z" fill="#18939B"/>
</g>
<defs>
<clipPath id="clip0_2490_31822">
<rect width="66" height="66" fill="white"/>
</clipPath>
</defs>
</svg>
